# Blender 4.4.0
# www.blender.org
mtllib Plane_010_visual.mtl
o Plane_010_visual.001
v 0.014051 0.349763 -0.177141
v -0.126382 0.830841 -0.177141
v 0.154484 0.830841 -0.177141
v -0.509013 1.213326 -0.177141
v -0.003860 1.092206 -0.177141
v -0.142890 0.857999 -0.177141
v 0.531584 1.222500 -0.177141
v 0.172388 0.860731 -0.177141
v 0.028810 1.092427 -0.177141
v 0.014051 0.349763 0.152638
v -0.126382 0.830841 0.152638
v 0.154484 0.830841 0.152638
v -0.509013 1.213326 0.152638
v -0.003860 1.092206 0.152638
v -0.142890 0.857999 0.152638
v 0.531584 1.222500 0.152638
v 0.172388 0.860731 0.152638
v 0.028810 1.092427 0.152638
v 0.014051 0.449264 0.158581
v -0.082814 0.781090 0.158581
v 0.110915 0.781090 0.158581
v -0.418910 1.164054 0.158581
v -0.070478 1.080511 0.158581
v -0.166375 0.918966 0.158581
v 0.442444 1.171637 0.158581
v 0.194686 0.922104 0.158581
v 0.095652 1.081918 0.158581
v 0.014051 0.449926 -0.003390
v -0.082524 0.780759 -0.003390
v 0.110625 0.780759 -0.003390
v -0.418310 1.163726 -0.003390
v -0.070922 1.080433 -0.003390
v -0.166531 0.919371 -0.003390
v 0.441850 1.171298 -0.003390
v 0.194835 0.922512 -0.003390
v 0.096097 1.081848 -0.003390
v 0.014051 0.450589 -0.177141
v -0.082234 0.780428 -0.177141
v 0.110335 0.780428 -0.177141
v -0.417710 1.163398 -0.177141
v -0.071365 1.080355 -0.177141
v -0.166688 0.919777 -0.177141
v 0.441257 1.170959 -0.177141
v 0.194983 0.922921 -0.177141
v 0.096542 1.081778 -0.177141
v -0.077855 0.864314 0.153754
v 0.105754 0.864314 0.153754
v 0.002241 1.035174 0.153754
v -0.088646 0.882068 0.153754
v 0.117458 0.883854 0.153754
v 0.023598 1.035319 0.153754
v -0.078535 0.863845 -0.180733
v 0.106437 0.863845 -0.180733
v 0.002155 1.035974 -0.180733
v -0.089407 0.881731 -0.180733
v 0.118229 0.883530 -0.180733
v 0.023671 1.036120 -0.180733
v -0.041548 0.889358 -0.331763
v 0.069295 0.889358 -0.331763
v 0.006805 0.992505 -0.331763
v -0.048062 0.900076 -0.331763
v 0.076361 0.901154 -0.331763
v 0.019698 0.992592 -0.331763
v -0.041461 0.889418 0.318727
v 0.069208 0.889418 0.318727
v 0.006816 0.992403 0.318727
v -0.047965 0.900119 0.318727
v 0.076262 0.901196 0.318727
v 0.019689 0.992490 0.318727
vn -0.0000 -0.0000 -1.0000
vn -0.0528 -0.0321 -0.9981
vn 0.0989 -0.0587 0.9934
vn -0.0979 -0.0606 0.9934
vn -0.2001 -0.0584 0.9780
vn -0.0279 0.0166 0.9995
vn 0.2332 0.9724 -0.0000
vn -0.0068 1.0000 -0.0000
vn -0.9599 -0.2802 -0.0000
vn 0.8579 -0.5139 -0.0000
vn -0.2505 0.9681 -0.0000
vn -0.6964 -0.7176 -0.0000
vn 0.9599 -0.2802 -0.0000
vn -0.8545 -0.5194 -0.0000
vn 0.7096 -0.7046 -0.0000
vn 0.8500 0.5267 0.0021
vn 0.9599 0.2802 0.0011
vn -0.2332 -0.9724 0.0011
vn -0.0000 0.1186 0.9929
vn -0.0540 0.2087 0.9765
vn -0.1477 -0.1521 0.9773
vn 0.2001 -0.0584 0.9780
vn 0.1503 -0.1492 0.9773
vn 0.0503 0.2097 0.9765
vn -0.8599 0.5105 0.0021
vn -0.0000 -1.0000 0.0020
vn 0.2505 -0.9681 0.0011
vn 0.6964 0.7176 0.0011
vn -0.9599 0.2802 0.0011
vn -0.7096 0.7046 0.0011
vn -0.0000 -1.0000 0.0019
vn -0.8599 0.5105 0.0020
vn 0.8500 0.5267 0.0020
vn 0.2505 -0.9681 0.0010
vn 0.6964 0.7176 0.0010
vn -0.2332 -0.9724 0.0010
vn -0.8496 0.5043 0.1543
vn 0.0162 -0.0097 0.9998
vn -0.0162 -0.0098 0.9998
vn 0.0275 0.0170 0.9995
vn -0.0000 -0.0333 0.9994
vn -0.0001 0.0195 0.9998
vn -0.0000 -0.9860 -0.1666
vn 0.0892 0.0553 -0.9945
vn -0.0000 -0.1082 -0.9941
vn -0.0004 0.0637 -0.9980
vn -0.0907 0.0538 -0.9944
vn 0.0529 -0.0317 -0.9981
vn 0.8222 -0.4925 -0.2854
vn -0.8192 -0.4979 -0.2847
vn -0.8473 0.5030 -0.1708
vn -0.0065 0.9609 -0.2768
vn 0.8374 0.5189 -0.1716
vn -0.0000 -0.0000 1.0000
vn -0.0065 0.9679 0.2511
vn 0.8398 0.5204 0.1550
vn -0.0000 -0.9886 0.1504
vn 0.8286 -0.4963 0.2591
vn -0.8255 -0.5018 0.2585
vt 0.000000 0.000000
vt 1.000000 1.000000
vt 1.000000 0.000000
s 0
usemtl Material
f 1/1/1 37/1/1 39/2/1 3/2/1
f 4/1/1 40/1/1 42/2/1 6/2/1
f 7/1/1 43/1/1 45/2/1 9/2/1
f 6/2/2 55/2/2 52/3/2 2/3/2
f 14/3/3 23/3/3 24/2/3 15/2/3
f 17/3/4 26/3/4 27/2/4 18/2/4
f 10/1/5 19/1/5 20/3/5 11/3/5
f 15/2/6 49/2/6 48/3/6 14/3/6
f 4/1/7 13/1/7 14/3/7 5/3/7
f 5/3/8 14/3/8 18/2/8 9/2/8
f 1/1/9 10/1/9 11/3/9 2/3/9
f 8/3/10 17/3/10 12/2/10 3/2/10
f 9/2/11 18/2/11 16/1/11 7/1/11
f 6/2/12 15/2/12 13/1/12 4/1/12
f 3/2/13 12/2/13 10/1/13 1/1/13
f 2/3/14 11/3/14 15/2/14 6/2/14
f 7/1/15 16/1/15 17/3/15 8/3/15
f 26/3/16 35/3/16 36/2/16 27/2/16
f 19/1/17 28/1/17 29/3/17 20/3/17
f 22/1/18 31/1/18 32/3/18 23/3/18
f 11/3/19 20/3/19 21/2/19 12/2/19
f 18/2/20 27/2/20 25/1/20 16/1/20
f 15/2/21 24/2/21 22/1/21 13/1/21
f 12/2/22 21/2/22 19/1/22 10/1/22
f 16/1/23 25/1/23 26/3/23 17/3/23
f 13/1/24 22/1/24 23/3/24 14/3/24
f 23/3/25 32/3/25 33/2/25 24/2/25
f 20/3/26 29/3/26 30/2/26 21/2/26
f 27/2/27 36/2/27 34/1/27 25/1/27
f 24/2/28 33/2/28 31/1/28 22/1/28
f 21/2/29 30/2/29 28/1/29 19/1/29
f 25/1/30 34/1/30 35/3/30 26/3/30
f 39/2/31 30/2/31 29/3/31 38/3/31
f 42/2/32 33/2/32 32/3/32 41/3/32
f 45/2/33 36/2/33 35/3/33 44/3/33
f 8/3/1 44/3/1 43/1/1 7/1/1
f 5/3/1 41/3/1 40/1/1 4/1/1
f 2/3/1 38/3/1 37/1/1 1/1/1
f 9/2/1 45/2/1 44/3/1 8/3/1
f 6/2/1 42/2/1 41/3/1 5/3/1
f 3/2/1 39/2/1 38/3/1 2/3/1
f 43/1/34 34/1/34 36/2/34 45/2/34
f 40/1/35 31/1/35 33/2/35 42/2/35
f 37/1/29 28/1/29 30/2/29 39/2/29
f 44/3/30 35/3/30 34/1/30 43/1/30
f 41/3/36 32/3/36 31/1/36 40/1/36
f 38/3/17 29/3/17 28/1/17 37/1/17
f 49/2/37 67/2/37 66/3/37 48/3/37
f 17/3/38 50/3/38 47/2/38 12/2/38
f 11/3/39 46/3/39 49/2/39 15/2/39
f 18/2/40 51/2/40 50/3/40 17/3/40
f 12/2/41 47/2/41 46/3/41 11/3/41
f 14/3/42 48/3/42 51/2/42 18/2/42
f 52/3/43 58/3/43 59/2/43 53/2/43
f 8/3/44 56/3/44 57/2/44 9/2/44
f 2/3/45 52/3/45 53/2/45 3/2/45
f 9/2/46 57/2/46 54/3/46 5/3/46
f 5/3/47 54/3/47 55/2/47 6/2/47
f 3/2/48 53/2/48 56/3/48 8/3/48
f 59/2/1 58/3/1 61/2/1 60/3/1 63/2/1 62/3/1
f 53/2/49 59/2/49 62/3/49 56/3/49
f 55/2/50 61/2/50 58/3/50 52/3/50
f 54/3/51 60/3/51 61/2/51 55/2/51
f 57/2/52 63/2/52 60/3/52 54/3/52
f 56/3/53 62/3/53 63/2/53 57/2/53
f 65/2/54 68/3/54 69/2/54 66/3/54 67/2/54 64/3/54
f 48/3/55 66/3/55 69/2/55 51/2/55
f 51/2/56 69/2/56 68/3/56 50/3/56
f 47/2/57 65/2/57 64/3/57 46/3/57
f 50/3/58 68/3/58 65/2/58 47/2/58
f 46/3/59 64/3/59 67/2/59 49/2/59
