# Blender 4.4.0
# www.blender.org
mtllib Plane_001_visual.mtl
o Plane_001_visual.001
v 0.326290 -0.027551 -0.082266
v -0.313722 -0.047871 -0.082266
v 0.033640 0.576260 -0.082266
v 0.353779 0.021602 -0.082266
v -0.360691 0.033157 -0.082266
v -0.022325 0.577135 -0.082266
v 0.286627 0.000362 0.166847
v -0.272742 -0.017399 0.166847
v 0.136980 -0.589023 0.166847
v -0.088373 -0.595057 0.166847
v 0.030852 0.528091 0.166847
v 0.310653 0.043321 0.166847
v 0.620756 0.675477 0.166847
v 0.733333 0.477881 0.166847
v -0.313793 0.053420 0.166847
v -0.018062 0.528856 0.166847
v -0.721636 0.504291 0.166847
v -0.600501 0.696466 0.166847
v 0.189264 -0.567226 -0.082266
v 0.147157 -0.652533 0.026691
v -0.145103 -0.576179 -0.082266
v -0.096477 -0.659077 0.026646
v 0.549388 0.705118 -0.082266
v 0.663060 0.708911 0.046864
v 0.722709 0.400901 -0.082266
v 0.783445 0.497591 0.046884
v -0.733791 0.445621 -0.082266
v -0.780935 0.529391 0.027085
v -0.554380 0.730246 -0.082266
v -0.649973 0.737085 0.027167
v 0.100190 -0.501490 0.121576
v 0.204472 -0.090779 0.121576
v -0.185323 -0.103155 0.121576
v -0.056846 -0.505694 0.121576
v 0.561078 0.601421 0.121576
v 0.150005 0.498716 0.121576
v 0.344983 0.160905 0.121576
v 0.639527 0.463727 0.121576
v -0.628223 0.486547 0.121576
v -0.344019 0.172359 0.121576
v -0.137940 0.503665 0.121576
v -0.543810 0.620463 0.121576
v 0.244348 -0.100316 -0.048562
v -0.227633 -0.115302 -0.048562
v 0.133732 0.536802 -0.048562
v 0.369821 0.127767 -0.048562
v -0.375684 0.141688 -0.048562
v -0.126154 0.542848 -0.048562
v -0.103284 -0.504906 -0.048562
v 0.143298 -0.498304 -0.048562
v 0.641890 0.407483 -0.048562
v 0.514073 0.631829 -0.048562
v -0.518521 0.655761 -0.048562
v -0.650829 0.445862 -0.048562
v 0.211701 0.049089 -0.149627
v -0.201581 0.035967 -0.149627
v 0.022725 0.438995 -0.149627
v 0.229452 0.080829 -0.149627
v -0.231911 0.088291 -0.149627
v -0.013414 0.439560 -0.149627
v 0.114894 0.115221 0.115423
v -0.104678 0.108250 0.115423
v 0.014493 0.322373 0.115423
v 0.124324 0.132084 0.115423
v -0.120792 0.136049 0.115423
v -0.004707 0.322674 0.115423
vn 0.4578 0.1461 -0.8770
vn 0.3894 0.2247 -0.8932
vn 0.3556 0.3216 -0.8776
vn -0.3772 -0.2186 -0.9000
vn -0.3868 0.2406 0.8903
vn 0.5912 0.1887 0.7842
vn 0.3944 0.2276 0.8903
vn 0.2073 0.1201 0.9709
vn -0.9352 -0.2985 0.1904
vn 0.0154 0.9817 0.1900
vn 0.8569 -0.4792 0.1901
vn -0.8478 -0.4914 0.1996
vn 0.2721 0.9455 0.1786
vn 0.7049 -0.6856 0.1818
vn 0.9536 -0.2421 0.1790
vn -0.2384 0.9540 0.1818
vn -0.7280 -0.6585 0.1906
vn -0.8368 0.5276 -0.1462
vn 0.8409 0.4791 -0.2518
vn 0.0265 -0.9892 -0.1441
vn -0.0000 -0.0000 1.0000
vn -0.4440 0.4319 0.7850
vn -0.0122 0.4553 0.8903
vn -0.1713 -0.5954 0.7850
vn -0.6015 0.1527 0.7841
vn -0.3957 -0.2254 0.8903
vn 0.1501 -0.6009 0.7851
vn 0.3853 -0.2429 0.8902
vn 0.0145 -0.4552 0.8903
vn 0.4594 0.4156 0.7850
vn -0.0000 -0.0000 -1.0000
vn -0.3401 0.3308 -0.8803
vn -0.1326 -0.4609 -0.8775
vn -0.0116 0.4330 -0.9013
vn -0.3681 0.2290 -0.9011
vn -0.3906 -0.2226 -0.8932
vn 0.3668 -0.2312 -0.9011
vn 0.0137 -0.4330 -0.9013
vn -0.4657 0.1182 -0.8770
vn 0.1150 -0.4602 -0.8803
vn 0.0069 0.4401 -0.8979
vn 0.5658 0.3266 -0.7571
vn 0.3842 -0.2148 -0.8979
vn -0.5460 0.3396 -0.7659
vn 0.0204 -0.6427 -0.7659
vn -0.0125 0.3930 0.9195
vn -0.0038 -0.2422 0.9702
vn -0.2114 0.1182 0.9702
vn 0.3339 -0.2077 0.9194
vn -0.3485 -0.2011 0.9155
vt 0.654700 0.345300
vt 1.000000 0.000000
vt 0.000000 0.000000
vt 0.000000 0.347857
vt 0.568014 0.431986
vt 0.568014 0.431986
vt 0.655105 0.344895
vt 0.670457 0.329543
vt 0.000000 0.435068
vt 0.000000 0.348178
vt 0.000000 0.332447
vt 0.655105 0.344895
vt 0.670457 0.329544
vt 0.654700 0.345300
vt 0.000000 0.348178
vt 0.000000 0.332448
s 0
usemtl Material
f 21/1/1 2/2/1 44/2/1 49/1/1
f 4/2/2 3/3/2 45/3/2 46/2/2
f 5/3/3 27/4/3 54/4/3 47/3/3
f 2/2/4 5/3/4 59/3/4 56/2/4
f 15/3/5 16/2/5 41/2/5 40/3/5
f 8/2/6 10/5/6 34/5/6 33/2/6
f 11/3/7 12/2/7 37/2/7 36/3/7
f 15/3/8 8/2/8 62/2/8 65/3/8
f 2/2/9 21/1/9 22/6/9 10/5/9 8/2/9
f 3/3/10 6/2/10 16/2/10 11/3/10
f 1/3/11 4/2/11 12/2/11 7/3/11
f 5/3/12 2/2/12 8/2/12 15/3/12
f 6/2/13 29/7/13 30/5/13 18/5/13 16/2/13
f 4/2/14 25/8/14 26/5/14 14/5/14 12/2/14
f 20/9/15 19/10/15 1/3/15 7/3/15 9/9/15
f 24/9/16 23/11/16 3/3/16 11/3/16 13/9/16
f 28/9/17 27/4/17 5/3/17 15/3/17 17/9/17
f 17/9/18 18/5/18 30/5/18 29/12/18 27/4/18 28/9/18
f 13/9/19 14/5/19 26/5/19 25/13/19 23/11/19 24/9/19
f 9/9/20 10/5/20 22/6/20 21/14/20 19/10/20 20/9/20
f 32/3/21 33/2/21 34/5/21 31/9/21
f 36/3/21 37/2/21 38/5/21 35/9/21
f 40/3/21 41/2/21 42/5/21 39/9/21
f 12/2/22 14/5/22 38/5/22 37/2/22
f 10/5/23 9/9/23 31/9/23 34/5/23
f 16/2/24 18/5/24 42/5/24 41/2/24
f 9/9/25 7/3/25 32/3/25 31/9/25
f 14/5/26 13/9/26 35/9/26 38/5/26
f 13/9/27 11/3/27 36/3/27 35/9/27
f 18/5/28 17/9/28 39/9/28 42/5/28
f 7/3/29 8/2/29 33/2/29 32/3/29
f 17/9/30 15/3/30 40/3/30 39/9/30
f 43/3/31 50/15/31 49/14/31 44/2/31
f 45/3/31 52/16/31 51/13/31 46/2/31
f 47/3/31 54/4/31 53/12/31 48/2/31
f 25/8/32 4/2/32 46/2/32 51/8/32
f 29/7/33 6/2/33 48/2/33 53/7/33
f 19/10/34 21/14/34 49/14/34 50/10/34
f 6/2/35 5/3/35 47/3/35 48/2/35
f 23/11/36 25/13/36 51/13/36 52/11/36
f 27/4/37 29/12/37 53/12/37 54/4/37
f 2/2/38 1/3/38 43/3/38 44/2/38
f 1/3/39 19/10/39 50/10/39 43/3/39
f 3/3/40 23/11/40 52/11/40 45/3/40
f 56/2/31 59/3/31 60/2/31 57/3/31 58/2/31 55/3/31
f 6/2/41 3/3/41 57/3/41 60/2/41
f 3/3/42 4/2/42 58/2/42 57/3/42
f 4/2/43 1/3/43 55/3/43 58/2/43
f 5/3/44 6/2/44 60/2/44 59/3/44
f 1/3/45 2/2/45 56/2/45 55/3/45
f 62/2/21 61/3/21 64/2/21 63/3/21 66/2/21 65/3/21
f 8/2/46 7/3/46 61/3/46 62/2/46
f 11/3/47 16/2/47 66/2/47 63/3/47
f 7/3/48 12/2/48 64/2/48 61/3/48
f 16/2/49 15/3/49 65/3/49 66/2/49
f 12/2/50 11/3/50 63/3/50 64/2/50
